<?xml version="1.0" encoding="UTF-8" standalone="no"?>
<!DOCTYPE svg PUBLIC "-//W3C//DTD SVG 1.1//EN" "http://www.w3.org/Graphics/SVG/1.1/DTD/svg11.dtd">
<svg width="100%" height="100%" viewBox="0 0 512 512" version="1.1" xmlns="http://www.w3.org/2000/svg" xmlns:xlink="http://www.w3.org/1999/xlink" xml:space="preserve" xmlns:serif="http://www.serif.com/" style="fill-rule:evenodd;clip-rule:evenodd;stroke-linejoin:round;stroke-miterlimit:2;">
    <g transform="matrix(1,0,0,1,-131.243838,-934.15748)">
        <g transform="matrix(1,0,0,1,1762.328867,417.255475)">
            <g transform="matrix(0.459171,0,0,0.54788,-681.387468,376.838346)">
                <rect x="-2068.289" y="255.647" width="1115.054" height="934.511" style="fill:none;"/>
            </g>
            <g transform="matrix(0.342378,0,0,0.342378,-2199.790024,389.821325)">
                <g transform="matrix(1.458604,0,0,1.458604,549.435026,89.381174)">
                    <path d="M1509.399,457.588C1613.332,531.25 1681.22,652.486 1681.22,789.452C1681.22,1013.802 1499.076,1195.946 1274.726,1195.946C1050.376,1195.946 868.232,1013.802 868.232,789.452C868.232,652.538 936.068,531.343 1039.934,457.672C1034.014,444.097 1028.326,428.914 1022.81,411.45C1012.794,379.739 1004.855,340.089 1005.214,304.423C1005.493,276.76 1010.925,251.321 1022.217,231.842C1027.969,221.918 1038.541,215.777 1050.012,215.697C1050.012,215.697 1163.977,210.388 1238.9,384.518C1250.706,383.486 1262.655,382.958 1274.726,382.958C1286.746,382.958 1298.645,383.481 1310.402,384.505C1385.325,210.388 1499.285,215.697 1499.285,215.697C1510.755,215.777 1521.327,221.918 1527.08,231.842C1538.371,251.321 1543.804,276.76 1544.082,304.423C1544.442,340.089 1536.503,379.739 1526.487,411.45C1520.982,428.878 1515.306,444.034 1509.399,457.588Z"/>
                </g>
                <g transform="matrix(1.496703,0,0,1.496703,-77.198264,-304.155897)">
                    <path d="M1660.878,667.711C1862.054,667.711 2025.383,831.041 2025.383,1032.217C2025.383,1233.393 1862.054,1396.722 1660.878,1396.722C1459.702,1396.722 1296.372,1233.393 1296.372,1032.217C1296.372,831.041 1459.702,667.711 1660.878,667.711ZM1660.878,740.612C1499.937,740.612 1369.273,871.276 1369.273,1032.217C1369.273,1193.157 1499.937,1323.821 1660.878,1323.821C1821.818,1323.821 1952.482,1193.157 1952.482,1032.217C1952.482,871.276 1821.818,740.612 1660.878,740.612Z" style="fill:white;"/>
                </g>
                <g transform="matrix(0.643582,0,0,0.643582,1339.730759,576.449499)">
                    <path d="M1660.878,667.711C1862.054,667.711 2025.383,831.041 2025.383,1032.217C2025.383,1233.393 1862.054,1396.722 1660.878,1396.722C1459.702,1396.722 1296.372,1233.393 1296.372,1032.217C1296.372,831.041 1459.702,667.711 1660.878,667.711ZM1660.878,811.818C1539.236,811.818 1440.479,910.575 1440.479,1032.217C1440.479,1153.858 1539.236,1252.615 1660.878,1252.615C1782.519,1252.615 1881.276,1153.858 1881.276,1032.217C1881.276,910.575 1782.519,811.818 1660.878,811.818Z" style="fill:white;"/>
                </g>
                <g transform="matrix(1.047692,0,0,1.047692,668.553853,159.320627)">
                    <path d="M1660.878,667.711C1862.054,667.711 2025.383,831.041 2025.383,1032.217C2025.383,1233.393 1862.054,1396.722 1660.878,1396.722C1459.702,1396.722 1296.372,1233.393 1296.372,1032.217C1296.372,831.041 1459.702,667.711 1660.878,667.711ZM1660.878,756.234C1508.559,756.234 1384.895,879.898 1384.895,1032.217C1384.895,1184.536 1508.559,1308.199 1660.878,1308.199C1813.197,1308.199 1936.86,1184.536 1936.86,1032.217C1936.86,879.898 1813.197,756.234 1660.878,756.234Z" style="fill:white;"/>
                </g>
                <g transform="matrix(1.809558,0,0,1.809558,-194.532242,-775.218242)">
                    <path d="M1385.624,1114.088L1385.624,1114.086C1385.342,1107.862 1382.383,1052.961 1364.523,1021.11C1335.259,968.923 1311.655,941.714 1291.81,916.042C1269.69,887.429 1251.718,860.562 1235.573,809.447C1227.5,783.887 1221.101,751.926 1221.39,723.177C1221.615,700.88 1225.994,680.375 1235.095,664.673C1239.732,656.674 1248.254,651.724 1257.499,651.659C1257.499,651.659 1382.482,645.837 1436.722,870.518C1437.319,872.988 1437.936,875.725 1438.569,878.692C1439.202,875.725 1439.819,872.988 1440.415,870.518C1494.656,645.837 1619.639,651.659 1619.639,651.659C1628.884,651.724 1637.406,656.674 1642.043,664.673C1651.144,680.375 1655.523,700.88 1655.748,723.177C1656.037,751.926 1649.638,783.887 1641.565,809.447C1625.42,860.562 1607.448,887.429 1585.328,916.042C1565.483,941.714 1541.879,968.923 1512.615,1021.11C1494.752,1052.967 1491.795,1107.884 1491.514,1114.082C1491.178,1143.017 1467.583,1166.405 1438.569,1166.405C1409.905,1166.405 1386.537,1143.576 1385.647,1115.126C1385.636,1114.781 1385.628,1114.435 1385.624,1114.088Z"/>
                </g>
                <g transform="matrix(1.809558,0,0,1.809558,-194.532242,-775.218242)">
                    <path d="M1411.729,1113.457C1411.729,1113.457 1408.62,1046.371 1387.295,1008.34C1327.011,900.834 1290.308,896.055 1260.469,801.584C1248.278,762.986 1239.962,708.336 1257.683,677.767C1257.683,677.767 1363.153,677.026 1411.343,876.645C1421.772,919.843 1438.569,1046.219 1438.569,1046.219C1438.569,1046.219 1455.366,919.843 1465.795,876.645C1513.985,677.026 1619.455,677.767 1619.455,677.767C1637.176,708.336 1628.86,762.986 1616.669,801.584C1586.83,896.055 1550.127,900.834 1489.843,1008.34C1468.518,1046.371 1465.409,1113.457 1465.409,1113.457C1465.409,1128.27 1453.383,1140.297 1438.569,1140.297C1424.041,1140.297 1412.193,1128.729 1411.742,1114.31C1411.733,1114.027 1411.729,1113.742 1411.729,1113.457Z" style="fill:white;"/>
                </g>
            </g>
        </g>
    </g>
</svg>
